<?xml version="1.0"?>
<svg xmlns="http://www.w3.org/2000/svg" xmlns:xlink="http://www.w3.org/1999/xlink" xmlns:svgjs="http://svgjs.com/svgjs" version="1.1" width="512" height="512" x="0" y="0" viewBox="0 0 512 512" style="enable-background:new 0 0 512 512" xml:space="preserve" class=""><g><path xmlns="http://www.w3.org/2000/svg" d="m252.732 272.983.074.007c20.094 2.747 37.477-1.871 51.672-13.73 18.052-15.086 29.693-41.239 32.466-72.508l-53.158 18.738c-15.53 5.474-27.68 19.984-32.5 38.813a201.628 201.628 0 0 0 -3.948 20.062l43.231-39.532a5 5 0 0 1 6.748 7.38z" fill="#00ed5d" data-original="#000000" style="" class=""/><path xmlns="http://www.w3.org/2000/svg" d="m403.419 220.858a4.992 4.992 0 0 1 -.329-1.772c-.031-13.357-.128-34.044-.265-36.293a171.145 171.145 0 0 0 -172.853-161.782q-2.22.024-4.421.1a152.865 152.865 0 0 0 -76.451 23.16 159.492 159.492 0 0 0 -56.311 208.529 4.818 4.818 0 0 1 .2.438c.781 1.93 19.152 47.48 21.029 67.654 5.393 57.919 1.428 147.547.292 170.111h146.69v-56.98c0-.032.007-.064.01-.1a30.29 30.29 0 0 1 10.011-16.7 73.078 73.078 0 0 1 -52.979-61.94v-.012l-1.267-13.35c-.878-8.917-2.207-18.269-3.982-27.85a215.124 215.124 0 0 0 -15.1-48.554c-17.835-2.9-34.653-10.278-47.584-20.921-16.753-13.791-26.9-32.967-29.35-55.457l-6.123-48.7a5.22 5.22 0 0 1 .573-3.245 5 5 0 0 1 4.584-2.55c50.1 2.2 89.388 52.781 87.588 112.763l-.415 13.847c0 .131-.038.255-.052.384a224.728 224.728 0 0 1 13.939 42.078c.07-.208.138-.423.21-.622.558-1.563 1.165-3.107 1.8-4.632-13.3-31.106-13.509-63.177-.785-93.824-.019-.151-.056-.31-.061-.464l-.375-11.3c-2.388-22.68 3.733-43.041 17.707-58.808 18.689-21.088 50.851-33.066 88.225-34.066h.069a5.081 5.081 0 0 1 4.1 2.228 5.173 5.173 0 0 1 .562 4.741l-23 59.66a58.014 58.014 0 0 1 -22.305 27.126l53.766-18.955a5 5 0 0 1 6.657 4.93c-1.6 37.35-14.91 69.133-36.533 87.2-13.278 11.093-29.466 16.8-47.348 16.8a89.04 89.04 0 0 1 -11.906-.815l-7.814-.487a83.779 83.779 0 0 0 -13.345 24.035 71.888 71.888 0 0 0 -2.98 15.513 139.038 139.038 0 0 0 -.033 26.955l.289 3.154a63.4 63.4 0 0 0 62.876 57.915h.251c22.025 0 48.95.172 51.708.258a34.54 34.54 0 0 0 35.412-34.19v-57.825a5.258 5.258 0 0 1 5.243-5.243h51.335a2.779 2.779 0 0 0 2.331-1.1 2.675 2.675 0 0 0 .314-2.553zm-256.455-145.421a134.972 134.972 0 0 0 -29.809 35.525 137.469 137.469 0 0 0 -13 30.1 5 5 0 1 1 -9.59-2.834 147.47 147.47 0 0 1 13.944-32.291 144.946 144.946 0 0 1 32.013-38.149 5 5 0 0 1 6.44 7.651zm24.814-16.437c-2.412 1.226-4.83 2.553-7.186 3.944a5 5 0 1 1 -5.084-8.611c2.537-1.5 5.141-2.927 7.741-4.248a5 5 0 1 1 4.529 8.915z" fill="#00ed5d" data-original="#000000" style="" class=""/><path xmlns="http://www.w3.org/2000/svg" d="m157.913 193.379a5 5 0 0 1 6.96 1.248l22.727 32.657c3.493 5.02 6.764 10.242 9.828 15.622-.221-50.256-31.47-92.317-72.12-97.74l5.382 42.816c2.9 26.647 20.691 56.969 61.558 66.313a196.66 196.66 0 0 0 -12.859-21.295l-22.725-32.657a5 5 0 0 1 1.249-6.964z" fill="#00ed5d" data-original="#000000" style="" class=""/><path xmlns="http://www.w3.org/2000/svg" d="m274.878 151.023a157 157 0 0 0 -35.371 41.116q-1.785 3.022-3.376 6.056a211.971 211.971 0 0 0 24.1-3.807c18.962-4.269 33.819-15.992 39.743-31.357l20.275-52.591c-31.335 1.863-57.816 12.738-73.42 30.345-11.135 12.563-16.363 27.935-15.621 45.743a164.186 164.186 0 0 1 37.635-43.481 5 5 0 0 1 6.032 7.976z" fill="#00ed5d" data-original="#000000" style="" class=""/><path xmlns="http://www.w3.org/2000/svg" d="m228.91 286.47a92.135 92.135 0 0 1 6.813-9.905 245.324 245.324 0 0 1 5.877-34.742c4.239-16.563 13.48-30.331 25.725-38.955-1.6.472-3.234.9-4.893 1.276a237.059 237.059 0 0 1 -31.255 4.565c-10.657 25.558-11.423 51.613-2.267 77.761z" fill="#00ed5d" data-original="#000000" style="" class=""/></g></svg>
